CATALOG 0000000000000
FILE "PC Gaming World - Issue 30 (1999-06)(Ziff-Davis)(GB)(Track 1 of 3).bin" BINARY
  TRACK 01 MODE2/2352
    INDEX 01 00:00:00
FILE "PC Gaming World - Issue 30 (1999-06)(Ziff-Davis)(GB)(Track 2 of 3).bin" BINARY
  TRACK 02 AUDIO
    INDEX 00 00:00:00
    INDEX 01 00:01:35
FILE "PC Gaming World - Issue 30 (1999-06)(Ziff-Davis)(GB)(Track 3 of 3).bin" BINARY
  TRACK 03 AUDIO
    INDEX 01 00:00:00
